<svg id="Layer_1" data-name="Layer 1" xmlns="http://www.w3.org/2000/svg" viewBox="0 0 183.75 175.97"><defs><style>.cls-1{fill:#c11616;}</style></defs><title>WA-logo</title><path class="cls-1" d="M518.09,188.17H390.16v46.46h0V289.1q0,4,.68,5.34a2.76,2.76,0,0,0,2.72,1.29c2.57,0,3.85-2.06,3.85-6.2v-55h26V289.1c0,2.62.24,4.38.71,5.28a2.82,2.82,0,0,0,2.76,1.35q3.84,0,3.84-6.63V234.54h26.05v60.4q0,11.3-7.12,18.43t-18.41,7.12q-13.61,0-20.78-11.85a28.31,28.31,0,0,1-9.5,9.12,26.12,26.12,0,0,1-12.51,2.73q-11.79,0-18.08-7.12t-6.29-20.52V234.54h0V191.46a19.52,19.52,0,0,0-9.23,16.4V344.45c0,10.83,9.26,19.69,20.57,19.69H503.76V318.41h0V265.87c0-3.27-.41-5.55-1.22-6.82s-2.27-1.9-4.36-1.9q-6.11,0-6.1,8.72v10.45h7.51v22.12h-7.51v20H466V265.07q0-15.48,8.83-24t24.79-8.57q15.4,0,22.78,7.77t7.38,24v96.4a19.51,19.51,0,0,0,8.87-16.16V207.86C538.66,197,529.4,188.17,518.09,188.17Z" transform="translate(-354.9 -188.17)"/></svg>